<svg width="188" height="28" viewBox="0 0 188 28" fill="none" xmlns="http://www.w3.org/2000/svg" aria-hidden="true"><path d="M25.5711 0C14.6267 0 1.01309 11.3236 1.01309 20.7085C1.01309 25.5554 4.73612 28 9.65333 28C13.264 28 17.6333 26.6794 21.848 24.1365V5.40893C20.7241 7.33366 15.4416 15.0888 11.1987 19.2193C9.03518 21.3266 7.32118 22.2398 5.84602 22.2398C4.18821 22.2398 3.40146 21.1159 3.40146 19.4441C3.40146 11.8575 16.1722 1.99498 24.6298 1.99498C28.114 1.99498 30.3618 3.54039 30.3618 6.54692C30.3618 9.30055 28.4933 12.7566 25.3041 15.9458V21.7481C30.8676 17.3507 34.1972 11.7451 34.1972 7.22127C34.1972 2.4586 30.4883 0 25.5711 0Z" fill="#3643BA"></path></svg>