<svg width="84" height="20" viewBox="0 0 84 20" fill="none" xmlns="http://www.w3.org/2000/svg"><g clip-path="url(#clip0_2145_213)"><path d="M24.6539 7.34021H26.1507V11.5102H28.7628V12.8502H24.6539V7.34021Z" fill="white"></path><path d="M30.8663 7.34021H35.21V8.64021H32.3435V9.47021H34.9361V10.6802H32.3435V11.5502H35.2492V12.8502H30.8663V7.34021Z" fill="white"></path><path d="M37.695 7.34021H39.2701L40.5615 9.47021L41.8431 7.34021H43.428V12.8502H41.941V9.69021L40.5615 11.8402H40.5224L39.1527 9.70021V12.8502H37.695V7.34021Z" fill="white"></path><path d="M50.0415 10.1102V10.1002C50.0415 9.31022 49.4741 8.61022 48.6523 8.61022C47.8305 8.61022 47.2924 9.29022 47.2924 10.0802V10.1002C47.2924 10.8902 47.8598 11.5902 48.6718 11.5902C49.4936 11.5802 50.0415 10.9102 50.0415 10.1102ZM45.7564 10.1102V10.1002C45.7564 8.52022 47.0087 7.23022 48.6718 7.23022C50.335 7.23022 51.5677 8.50022 51.5677 10.0802V10.1002C51.5677 11.6802 50.3252 12.9602 48.6523 12.9602C46.9891 12.9602 45.7564 11.6902 45.7564 10.1102Z" fill="white"></path><path d="M53.9059 7.34021H55.3049L57.5257 10.2502V7.34021H59.003V12.8502H57.692L55.3929 9.83021V12.8502H53.9059V7.34021Z" fill="white"></path><path d="M61.0966 7.34019H62.6717L63.6109 10.5302L64.6479 7.32019H65.9393L66.9764 10.5302L67.9156 7.34019H69.4711L67.671 12.8902H66.36L65.2741 9.72019L64.1979 12.8902H62.8967L61.0966 7.34019Z" fill="white"></path><path d="M74.2649 10.6802L73.6681 9.11017L73.0615 10.6802H74.2649ZM72.9539 7.30017H74.3921L76.6911 12.8502H75.0867L74.6953 11.8702H72.6115L72.23 12.8502H70.6548L72.9539 7.30017Z" fill="white"></path><path d="M79.6066 10.7902L77.5521 7.34021H79.2544L80.3696 9.35021L81.4849 7.34021H83.1579L81.1034 10.7602V12.8502H79.6066V10.7902Z" fill="white"></path><path d="M16.0152 10.2302C15.9859 10.3102 15.9467 10.3902 15.9174 10.4802C15.7511 10.8202 15.6924 11.1802 15.6826 11.5402C15.6826 11.6102 15.6826 11.6902 15.6826 11.7602C15.7315 12.0702 15.7315 12.4302 15.663 12.7602C15.6435 12.8402 15.6239 12.9202 15.5946 13.0002C15.438 13.6002 14.8804 14.0102 14.2934 13.9202C15.3695 13.0602 15.0663 11.4902 15.0663 11.4902C14.9978 12.9302 14.0684 13.7302 13.7455 13.9802C13.7455 13.9802 13.7357 13.9702 13.7357 13.9602C12.2878 10.1202 7.69944 9.64022 7.69944 9.64022C11.6323 11.0902 12.9335 13.4702 13.3346 14.6402C13.3248 14.6502 13.315 14.6602 13.3053 14.6702C12.6204 15.5002 11.8084 16.0302 10.6931 16.0802C9.91047 16.1102 9.17672 16.0402 8.46254 15.8302C8.27666 15.7702 8.09077 15.7002 7.91468 15.6102C5.5569 14.5302 3.59046 11.4602 4.0992 4.91022C4.0992 4.91022 4.44161 5.29022 4.97969 5.78022C5.15579 5.94022 5.36124 6.11022 5.57647 6.29022C6.3787 7.05022 7.30811 7.55022 8.31579 7.90022C8.52124 7.97022 8.72669 8.03022 8.93214 8.09022C9.84198 8.22022 10.8301 8.53022 11.6812 9.01022C11.8965 9.13022 12.1019 9.26022 12.2976 9.41022C12.9335 9.81022 13.4227 10.3902 13.7162 11.0602C14.176 10.5702 14.9489 10.1202 16.1913 9.84022C16.2011 9.86022 16.1131 10.0102 16.0152 10.2302ZM9.69523 0.10022C4.34378 0.10022 0 4.53022 0 10.0002C0 15.4702 4.34378 19.9002 9.69523 19.9002C15.0467 19.9002 19.3905 15.4702 19.3905 10.0002C19.3905 4.53022 15.0565 0.10022 9.69523 0.10022Z" fill="white"></path></g><defs><clipPath id="clip0_2145_213"><rect width="83.1579" height="20" fill="white" transform="translate(0 0.000488281)"></rect></clipPath></defs></svg>