<svg viewBox="0 0 24 24" fill="none" xmlns="http://www.w3.org/2000/svg" width="16" height="16" stroke-width="1.5" aria-hidden="true"><path d="M16.9 12C16.9 12.4 17.2 12.7 17.6 12.7C18 12.7 18.3 12.4 18.3 12C18.3 11.6 18 11.3 17.6 11.3C17.2 11.3 16.9 11.6 16.9 12Z" fill="currentColor"></path><path d="M11.3 12C11.3 12.4 11.6 12.7 12 12.7C12.4 12.7 12.7 12.4 12.7 12C12.7 11.6 12.4 11.3 12 11.3C11.6 11.3 11.3 11.6 11.3 12Z" fill="currentColor"></path><path d="M5.80005 12C5.80005 12.4 6.10005 12.7 6.50005 12.7C6.90005 12.7 7.20005 12.4 7.20005 12C7.20005 11.6 6.90005 11.3 6.50005 11.3C6.10005 11.3 5.80005 11.6 5.80005 12Z" fill="currentColor"></path><path d="M16.9 12C16.9 12.4 17.2 12.7 17.6 12.7C18 12.7 18.3 12.4 18.3 12C18.3 11.6 18 11.3 17.6 11.3C17.2 11.3 16.9 11.6 16.9 12Z" stroke="currentColor" stroke-linecap="round" stroke-linejoin="round"></path><path d="M11.3 12C11.3 12.4 11.6 12.7 12 12.7C12.4 12.7 12.7 12.4 12.7 12C12.7 11.6 12.4 11.3 12 11.3C11.6 11.3 11.3 11.6 11.3 12Z" stroke="currentColor" stroke-linecap="round" stroke-linejoin="round"></path><path d="M5.80005 12C5.80005 12.4 6.10005 12.7 6.50005 12.7C6.90005 12.7 7.20005 12.4 7.20005 12C7.20005 11.6 6.90005 11.3 6.50005 11.3C6.10005 11.3 5.80005 11.6 5.80005 12Z" stroke="currentColor" stroke-linecap="round" stroke-linejoin="round"></path></svg>